<?xml version="1.0" encoding="utf-8"?>
<!-- Generator: Adobe Illustrator 16.0.4, SVG Export Plug-In . SVG Version: 6.00 Build 0)  -->
<!DOCTYPE svg PUBLIC "-//W3C//DTD SVG 1.1//EN" "http://www.w3.org/Graphics/SVG/1.1/DTD/svg11.dtd">
<svg version="1.1" id="Warstwa_1" xmlns="http://www.w3.org/2000/svg" xmlns:xlink="http://www.w3.org/1999/xlink" x="0px" y="0px"
	 width="919.098px" height="375.715px" viewBox="0 0 919.098 375.715" enable-background="new 0 0 919.098 375.715"
	 xml:space="preserve">
<rect x="599.04" fill="#202020" width="320.058" height="326.208"/>
<path fill="#00B9F1" d="M86.233,275.159c14.919,0,28.346-7.46,40.282-22.379l26.556,29.838
	c-20.691,21.483-43.07,32.226-67.136,32.226c-24.071,0-44.413-7.607-61.021-22.826C8.303,276.8,0,256.911,0,232.341
	c0-24.565,8.401-44.557,25.213-59.976c16.808-15.413,36.748-23.125,59.826-23.125c11.535,0,23.224,2.387,35.062,7.162
	c11.833,4.774,22.229,11.837,31.181,21.186l-23.274,30.436c-5.175-6.164-11.487-10.938-18.947-14.322
	c-7.459-3.381-14.873-5.072-22.229-5.072c-11.74,0-21.833,3.832-30.286,11.487c-8.457,7.659-12.681,18.304-12.681,31.928
	c0,13.627,4.224,24.22,12.681,31.776C64.996,271.383,74.894,275.159,86.233,275.159z"/>
<path fill="#F90BA4" d="M310.912,225.926v86.531h-45.056v-87.725c0-12.729-1.94-22.082-5.819-28.049
	c-3.879-5.968-10.145-8.952-18.798-8.952s-16.312,3.235-22.976,9.698c-6.667,6.467-9.996,15.963-9.996,28.495v86.531H163.51v-160.53
	h44.758v18.202c12.332-13.921,26.454-20.887,42.371-20.887c10.145,0,19.344,2.984,27.601,8.952
	c8.252,5.968,14.472,13.231,18.649,21.782c6.164-9.744,14.472-17.307,24.915-22.677c10.442-5.371,20.934-8.057,31.479-8.057
	c18.896,0,34.114,5.623,45.653,16.859c11.534,11.24,17.306,27.503,17.306,48.786v97.571h-45.056v-87.725
	c0-24.664-9.055-37-27.153-37c-8.951,0-16.709,3.235-23.273,9.697C314.194,203.896,310.912,213.395,310.912,225.926z"/>
<path fill="#FEE200" d="M502.173,300.521c-43.168,0-64.75-23.073-64.75-69.226v-79.371h45.056v65.048
	c0,15.916,2.135,27.152,6.416,33.717c4.274,6.564,11.637,9.848,22.08,9.848c10.442,0,18.351-3.133,23.722-9.398
	c5.371-6.267,8.057-15.166,8.057-26.705v-72.807h45.056v134.87c0,28.048-7.413,49.928-22.229,65.645
	c-14.82,15.711-33.867,23.572-57.141,23.572c-18.104,0-33.969-4.579-47.592-13.726c-13.628-9.152-23.723-22.281-30.286-39.388
	l38.492-16.71c7.758,21.083,20.687,31.629,38.79,31.629c11.338,0,20.388-4.229,27.152-12.682
	c6.761-8.457,10.146-19.145,10.146-32.076c0-1.79-0.104-3.58-0.298-5.371C532.309,296.148,518.085,300.521,502.173,300.521z"/>
<path fill="#FFFFFF" d="M657.631,312.457h-44.759V91.056h44.759V204.74l49.829-53.112h56.396l-61.168,65.048l63.556,95.781h-53.111
	l-40.881-61.467l-14.621,15.217L657.631,312.457L657.631,312.457z"/>
<g>
	<path fill="#FFFFFF" d="M782.702,38.24h-5.974v-3.085c-1.484,2.147-3.749,3.32-6.638,3.32c-5.975,0-9.918-4.333-9.918-10.815
		c0-6.403,3.903-10.66,9.761-10.661c2.968,0,5.271,1.171,6.795,3.318l-0.001-11.05h5.974L782.702,38.24z M776.728,27.814
		c0-3.436-2.147-5.817-5.233-5.817c-3.123,0-5.271,2.421-5.31,5.818c0.039,3.437,2.147,5.818,5.312,5.818
		C774.581,33.633,776.728,31.251,776.728,27.814z"/>
	<path fill="#FFFFFF" d="M806.479,29.57l-15.072,0.001c0.703,2.655,2.734,4.217,5.428,4.217c1.991,0,3.865-0.782,5.311-2.227
		l3.163,3.202c-2.108,2.343-5.193,3.71-8.981,3.71c-6.716,0-10.972-4.295-10.973-10.66c0-6.481,4.412-10.777,10.814-10.777
		C803.551,17.036,806.987,21.917,806.479,29.57z M800.856,26.017c-0.078-2.772-1.875-4.569-4.646-4.568
		c-2.655,0-4.451,1.796-4.92,4.569L800.856,26.017z"/>
	<path fill="#FFFFFF" d="M824.204,19.299l-2.068,4.1c-2.305-1.289-4.646-2.03-6.404-2.03c-1.406,0-2.421,0.468-2.421,1.562
		c0,3.163,11.089,1.562,11.051,8.98c0,4.295-3.787,6.56-8.551,6.561c-3.397,0-6.716-1.015-9.099-2.928l1.953-4.061
		c2.187,1.679,4.998,2.616,7.302,2.616c1.522,0,2.655-0.508,2.655-1.64c0-3.358-10.895-1.561-10.896-8.941
		c0-4.334,3.709-6.56,8.276-6.561C818.894,16.957,821.861,17.815,824.204,19.299z"/>
	<path fill="#FFFFFF" d="M833.029,32.536v5.701h-6.013l-0.002-28.973h6.013l0.001,15.931l7.692-7.927h6.833l-7.692,8.083
		l8.045,12.885H840.8l-5.076-8.551L833.029,32.536z"/>
	<path fill="#FFFFFF" d="M862.43,37.063c-1.562,0.898-3.514,1.445-5.466,1.445c-3.749,0-6.6-2.147-6.601-6.481v-9.723h-2.929v-4.139
		h2.929v-5.779h5.975v5.779h5.701v4.178h-5.701v8.668c0,1.757,0.742,2.46,2.03,2.421c0.781,0,1.719-0.273,2.812-0.782L862.43,37.063
		z"/>
	<path fill="#FFFFFF" d="M885.076,27.729c0,6.404-4.528,10.739-11.245,10.739c-6.755,0-11.284-4.334-11.284-10.738
		c0-6.442,4.528-10.699,11.284-10.699C880.546,17.031,885.075,21.287,885.076,27.729z M868.598,27.808
		c0,3.437,2.109,5.779,5.232,5.779c3.084,0,5.231-2.343,5.231-5.78c0-3.436-2.147-5.779-5.233-5.778
		C870.706,22.029,868.597,24.372,868.598,27.808z"/>
	<path fill="#FFFFFF" d="M910.221,27.844c0,6.365-3.865,10.622-9.762,10.622c-2.929,0-5.232-1.171-6.756-3.28v10.621h-6.013
		l-0.002-28.583h6.013v3.084c1.483-2.109,3.787-3.28,6.638-3.28C906.237,17.029,910.22,21.363,910.221,27.844z M904.13,27.649
		c0-3.358-2.109-5.778-5.193-5.778c-3.085,0-5.232,2.382-5.232,5.779c0,3.476,2.147,5.818,5.232,5.818S904.13,31.086,904.13,27.649z
		"/>
	<path fill="#FFFFFF" d="M738.859,74.71c0,6.365-3.865,10.621-9.761,10.622c-2.928,0-5.232-1.171-6.755-3.28l0.001,10.621h-6.014
		l-0.002-28.583h6.014v3.084c1.483-2.108,3.788-3.28,6.638-3.28C734.876,63.895,738.859,68.229,738.859,74.71z M732.768,74.516
		c0-3.358-2.108-5.779-5.193-5.778c-3.085,0-5.231,2.382-5.231,5.779c0,3.476,2.147,5.818,5.232,5.818
		C730.66,80.334,732.768,77.952,732.768,74.516z"/>
	<path fill="#FFFFFF" d="M761.232,85.096h-5.975v-3.709c-1.444,2.655-3.865,3.944-7.028,3.944c-4.646,0-7.576-3.084-7.576-8.043
		l-0.001-13.198h6.013v11.48c0,2.655,1.523,4.256,3.944,4.255c2.89-0.039,4.646-2.304,4.646-5.349V64.089h5.975L761.232,85.096z"/>
	<path fill="#FFFFFF" d="M788.212,74.707c0,6.365-3.864,10.621-9.762,10.622c-2.928,0-5.231-1.171-6.755-3.28v3.046h-6.013
		l-0.002-28.973h6.013v11.05c1.484-2.108,3.788-3.28,6.638-3.28C784.228,63.891,788.21,68.225,788.212,74.707z M782.12,74.512
		c0-3.358-2.107-5.779-5.192-5.779s-5.232,2.382-5.232,5.779c0,3.476,2.148,5.818,5.233,5.818
		C780.012,80.331,782.12,77.949,782.12,74.512z"/>
	<path fill="#FFFFFF" d="M790.788,85.093l-0.002-28.973h6.014l0.002,28.973H790.788z"/>
	<path fill="#FFFFFF" d="M807.497,58.111c0,1.952-1.328,3.358-3.24,3.358c-1.913,0-3.241-1.406-3.241-3.358
		c0-1.953,1.328-3.358,3.241-3.358C806.169,54.752,807.497,56.158,807.497,58.111z M801.251,85.093V64.086h6.013l0.001,21.007
		H801.251z"/>
	<path fill="#FFFFFF" d="M826.785,66.153l-2.068,4.101c-2.305-1.289-4.647-2.031-6.404-2.03c-1.406,0-2.42,0.469-2.42,1.562
		c0,3.163,11.089,1.561,11.051,8.98c0,4.295-3.787,6.561-8.551,6.561c-3.397,0-6.716-1.015-9.099-2.928l1.953-4.061
		c2.187,1.679,4.997,2.616,7.302,2.615c1.522,0,2.655-0.507,2.655-1.64c0-3.358-10.895-1.561-10.896-8.941
		c0-4.334,3.709-6.561,8.276-6.561C821.475,63.811,824.442,64.669,826.785,66.153z"/>
	<path fill="#FFFFFF" d="M850.604,71.892l0.001,13.198h-6.013l-0.001-11.441c0-2.655-1.562-4.295-4.14-4.295
		c-3.007,0.04-4.842,2.304-4.842,5.389l0.001,10.348h-6.013l-0.002-28.973h6.013v11.675c1.484-2.616,3.983-3.905,7.263-3.944
		C847.596,63.848,850.603,66.972,850.604,71.892z"/>
	<path fill="#FFFFFF" d="M860.44,58.107c0,1.952-1.328,3.358-3.241,3.358s-3.241-1.406-3.241-3.358c0-1.953,1.328-3.358,3.241-3.358
		C859.113,54.749,860.44,56.154,860.44,58.107z M854.195,85.089l-0.001-21.007h6.014v21.007H854.195z"/>
	<path fill="#FFFFFF" d="M885.391,71.889l0.001,13.198h-6.013l-0.002-11.441c0-2.655-1.562-4.295-4.139-4.295
		c-3.007,0.04-4.803,2.304-4.803,5.389l0.001,10.348h-6.013l-0.001-21.007h6.013v3.67c1.484-2.616,3.982-3.866,7.263-3.905
		C882.385,63.845,885.391,66.969,885.391,71.889z"/>
	<path fill="#FFFFFF" d="M908.702,83.133c0,5.974-4.489,9.762-11.205,9.762c-3.554,0-6.717-1.132-9.138-2.772l2.226-4.217
		c1.914,1.367,4.139,2.109,6.521,2.108c3.437,0,5.623-1.836,5.623-4.687v-2.382c-1.405,1.953-3.553,3.046-6.325,3.046
		c-5.428,0-9.177-4.06-9.177-10.151c0-5.935,3.67-9.958,9.02-9.958c2.852-0.039,5.037,1.093,6.482,3.045v-2.851h5.974V83.133z
		 M902.727,73.996c0-3.241-1.992-5.466-4.92-5.466c-2.93,0-4.919,2.265-4.958,5.467c0.04,3.202,1.992,5.428,4.959,5.427
		C900.735,79.424,902.727,77.198,902.727,73.996z"/>
	<path fill="#FFFFFF" d="M812.186,113.007l-2.069,4.101c-2.304-1.289-4.646-2.031-6.403-2.03c-1.406,0-2.422,0.469-2.422,1.562
		c0,3.163,11.091,1.561,11.052,8.98c0,4.295-3.787,6.561-8.552,6.561c-3.396,0-6.716-1.015-9.099-2.928l1.953-4.061
		c2.187,1.679,4.998,2.616,7.302,2.616c1.523,0,2.655-0.508,2.655-1.64c0-3.358-10.894-1.561-10.896-8.941
		c0-4.334,3.709-6.561,8.278-6.561C806.876,110.665,809.844,111.524,812.186,113.007z"/>
	<path fill="#FFFFFF" d="M827.804,130.773c-1.562,0.898-3.515,1.445-5.466,1.445c-3.749,0-6.601-2.147-6.601-6.481l-0.001-9.723
		h-2.929v-4.139h2.929v-5.779h5.975v5.779h5.701v4.178h-5.701l0.001,8.668c0,1.757,0.741,2.46,2.03,2.421
		c0.781,0,1.719-0.274,2.812-0.782L827.804,130.773z"/>
	<path fill="#FFFFFF" d="M849.826,131.943h-5.974v-3.709c-1.445,2.655-3.865,3.944-7.028,3.944c-4.646,0-7.575-3.084-7.575-8.043
		v-13.198h6.013v11.48c0,2.655,1.522,4.256,3.943,4.256c2.891-0.04,4.646-2.304,4.646-5.35v-10.387h5.974L849.826,131.943z"/>
	<path fill="#FFFFFF" d="M874.814,131.941h-5.974v-3.085c-1.484,2.148-3.748,3.32-6.639,3.32c-5.974,0-9.918-4.333-9.919-10.815
		c0-6.403,3.904-10.66,9.761-10.661c2.969,0,5.271,1.171,6.795,3.318l-0.001-11.05h5.974L874.814,131.941z M868.84,121.516
		c0-3.436-2.148-5.817-5.233-5.817c-3.124,0-5.271,2.421-5.31,5.818c0.04,3.437,2.147,5.818,5.311,5.818
		C866.692,127.334,868.841,124.952,868.84,121.516z"/>
	<path fill="#FFFFFF" d="M885.51,104.959c0,1.952-1.328,3.358-3.241,3.358s-3.241-1.405-3.241-3.357c0-1.953,1.327-3.358,3.24-3.359
		C884.182,101.601,885.51,103.006,885.51,104.959z M879.265,131.941l-0.001-21.007h6.013l0.001,21.007H879.265z"/>
	<path fill="#FFFFFF" d="M910.227,121.435c0,6.404-4.528,10.739-11.245,10.739c-6.755,0-11.285-4.333-11.286-10.737
		c0-6.442,4.529-10.699,11.284-10.7C905.697,110.736,910.226,114.992,910.227,121.435z M893.749,121.514
		c0,3.437,2.109,5.779,5.233,5.779c3.085,0,5.232-2.343,5.232-5.78c0-3.436-2.148-5.778-5.233-5.778
		C895.857,115.735,893.749,118.078,893.749,121.514z"/>
</g>
</svg>
